<svg width="38" height="38" viewBox="0 0 38 38" fill="none" xmlns="http://www.w3.org/2000/svg">
<path fill-rule="evenodd" clip-rule="evenodd" d="M17.1003 7.19329C18.5046 5.78895 20.4093 5 22.3953 5H26.3023C26.8418 5 27.2791 5.4373 27.2791 5.97674V11.186C27.2791 11.7255 26.8418 12.1628 26.3023 12.1628H22.3953C22.309 12.1628 22.2262 12.1971 22.1651 12.2582C22.1041 12.3192 22.0698 12.402 22.0698 12.4884V15.4186H26.3023C26.6031 15.4186 26.8871 15.5572 27.0722 15.7942C27.2573 16.0313 27.3229 16.3404 27.2499 16.6322L25.9476 21.8415C25.8389 22.2764 25.4482 22.5814 25 22.5814H22.0698V32.0233C22.0698 32.5627 21.6325 33 21.093 33H15.8837C15.3443 33 14.907 32.5627 14.907 32.0233V22.5814H11.9767C11.4373 22.5814 11 22.1441 11 21.6047V16.3953C11 15.8559 11.4373 15.4186 11.9767 15.4186H14.907V12.4884C14.907 10.5023 15.6959 8.59764 17.1003 7.19329ZM22.3953 6.95349C20.9274 6.95349 19.5196 7.53663 18.4816 8.57462C17.4436 9.61261 16.8605 11.0204 16.8605 12.4884V16.3953C16.8605 16.9348 16.4232 17.3721 15.8837 17.3721H12.9535V20.6279H15.8837C16.4232 20.6279 16.8605 21.0652 16.8605 21.6047V31.0465H20.1163V21.6047C20.1163 21.0652 20.5536 20.6279 21.093 20.6279H24.2374L25.0513 17.3721H21.093C20.5536 17.3721 20.1163 16.9348 20.1163 16.3953V12.4884C20.1163 11.8839 20.3564 11.3042 20.7838 10.8768C21.2112 10.4494 21.7909 10.2093 22.3953 10.2093H25.3256V6.95349H22.3953Z" fill="white"/>
</svg>
