<svg width="38" height="38" viewBox="0 0 38 38" fill="none" xmlns="http://www.w3.org/2000/svg">
<path fill-rule="evenodd" clip-rule="evenodd" d="M12.4884 6.95349C9.43154 6.95349 6.95349 9.43154 6.95349 12.4884V25.5116C6.95349 28.5685 9.43154 31.0465 12.4884 31.0465H25.5116C28.5685 31.0465 31.0465 28.5685 31.0465 25.5116V12.4884C31.0465 9.43154 28.5685 6.95349 25.5116 6.95349H12.4884ZM5 12.4884C5 8.35266 8.35266 5 12.4884 5H25.5116C29.6473 5 33 8.35266 33 12.4884V25.5116C33 29.6473 29.6473 33 25.5116 33H12.4884C8.35266 33 5 29.6473 5 25.5116V12.4884Z" fill="white"/>
<path fill-rule="evenodd" clip-rule="evenodd" d="M19.677 14.757C18.7964 14.6264 17.897 14.7768 17.1068 15.1868C16.3166 15.5969 15.6758 16.2456 15.2755 17.0408C14.8752 17.836 14.7359 18.7372 14.8774 19.6162C15.0188 20.4951 15.4338 21.3071 16.0633 21.9366C16.6928 22.5661 17.5048 22.9811 18.3837 23.1225C19.2627 23.264 20.1639 23.1247 20.9591 22.7244C21.7543 22.3242 22.4031 21.6834 22.8131 20.8931C23.2231 20.1029 23.3735 19.2035 23.2429 18.3229C23.1097 17.4246 22.6912 16.593 22.049 15.9509C21.4069 15.3087 20.5753 14.8902 19.677 14.757ZM16.2071 13.4529C17.362 12.8536 18.6765 12.6338 19.9636 12.8246C21.2764 13.0193 22.4919 13.6311 23.4304 14.5695C24.3689 15.508 24.9806 16.7235 25.1753 18.0364C25.3662 19.3234 25.1463 20.6379 24.547 21.7929C23.9478 22.9478 22.9996 23.8844 21.8374 24.4693C20.6751 25.0543 19.358 25.2579 18.0734 25.0512C16.7888 24.8445 15.602 24.238 14.682 23.3179C13.7619 22.3979 13.1554 21.2111 12.9487 19.9265C12.742 18.6419 12.9456 17.3248 13.5306 16.1626C14.1156 15.0003 15.0521 14.0521 16.2071 13.4529Z" fill="white"/>
<path fill-rule="evenodd" clip-rule="evenodd" d="M25.1865 11.8372C25.1865 11.2978 25.6238 10.8605 26.1633 10.8605H26.1767C26.7161 10.8605 27.1534 11.2978 27.1534 11.8372C27.1534 12.3767 26.7161 12.814 26.1767 12.814H26.1633C25.6238 12.814 25.1865 12.3767 25.1865 11.8372Z" fill="white"/>
</svg>
