<svg width="38" height="38" viewBox="0 0 38 38" fill="none" xmlns="http://www.w3.org/2000/svg">
<path fill-rule="evenodd" clip-rule="evenodd" d="M24.4273 14.8781C22.5935 14.8781 20.8347 15.6066 19.538 16.9033C18.2412 18.2001 17.5127 19.9588 17.5127 21.7927V30.0244H20.8054V21.7927C20.8054 20.8321 21.187 19.9108 21.8662 19.2316C22.5455 18.5523 23.4667 18.1708 24.4273 18.1708C25.3879 18.1708 26.3092 18.5523 26.9884 19.2316C27.6677 19.9108 28.0493 20.8321 28.0493 21.7927V30.0244H31.342V21.7927C31.342 19.9588 30.6135 18.2001 29.3167 16.9033C28.02 15.6066 26.2612 14.8781 24.4273 14.8781ZM24.4273 12.9025C22.0695 12.9025 19.8082 13.8391 18.141 15.5064C16.4738 17.1736 15.5371 19.4349 15.5371 21.7927V31.0122C15.5371 31.5577 15.9794 32 16.5249 32H21.7932C22.3387 32 22.781 31.5577 22.781 31.0122V21.7927C22.781 21.3561 22.9545 20.9373 23.2632 20.6286C23.572 20.3198 23.9907 20.1464 24.4273 20.1464C24.864 20.1464 25.2827 20.3198 25.5915 20.6286C25.9002 20.9373 26.0737 21.3561 26.0737 21.7927V31.0122C26.0737 31.5577 26.5159 32 27.0615 32H32.3298C32.8753 32 33.3176 31.5577 33.3176 31.0122V21.7927C33.3176 19.4349 32.3809 17.1736 30.7137 15.5064C29.0464 13.8391 26.7852 12.9025 24.4273 12.9025Z" fill="white"/>
<path fill-rule="evenodd" clip-rule="evenodd" d="M5 15.2073C5 14.6617 5.44225 14.2195 5.9878 14.2195H11.2561C11.8016 14.2195 12.2439 14.6617 12.2439 15.2073V31.0121C12.2439 31.5577 11.8016 31.9999 11.2561 31.9999H5.9878C5.44225 31.9999 5 31.5577 5 31.0121V15.2073ZM6.97561 16.1951V30.0243H10.2683V16.1951H6.97561Z" fill="white"/>
<path fill-rule="evenodd" clip-rule="evenodd" d="M8.62195 6.97561C7.7127 6.97561 6.97561 7.7127 6.97561 8.62195C6.97561 9.53119 7.7127 10.2683 8.62195 10.2683C9.53119 10.2683 10.2683 9.53119 10.2683 8.62195C10.2683 7.7127 9.53119 6.97561 8.62195 6.97561ZM5 8.62195C5 6.6216 6.6216 5 8.62195 5C10.6223 5 12.2439 6.6216 12.2439 8.62195C12.2439 10.6223 10.6223 12.2439 8.62195 12.2439C6.6216 12.2439 5 10.6223 5 8.62195Z" fill="white"/>
</svg>
